HIERARCHY
ROOT hip
{
  OFFSET 0 90.174 2.4664
  CHANNELS 6 Xposition Yposition Zposition Zrotation Xrotation Yrotation
  JOINT abdomen
  {
    OFFSET 0 -1.186 -1.5018
    CHANNELS 6 Xposition Yposition Zposition Zrotation Xrotation Yrotation
    JOINT abdomen2
    {
      OFFSET 0 9.964 0.2134
      CHANNELS 6 Xposition Yposition Zposition Zrotation Xrotation Yrotation
      JOINT chest
      {
        OFFSET 0 13.134 -3.2573
        CHANNELS 6 Xposition Yposition Zposition Zrotation Xrotation Yrotation
        JOINT neck
        {
          OFFSET 0 20.686 -1.6905
          CHANNELS 6 Xposition Yposition Zposition Zrotation Xrotation Yrotation
          JOINT head
          {
            OFFSET 0 7.238 -0.1237
            CHANNELS 6 Xposition Yposition Zposition Zrotation Xrotation Yrotation
            End Site
            {
              OFFSET 0 0 0
            }
          }
        }
        JOINT lCollar
        {
          OFFSET 1.7069 20.075 5.0056
          CHANNELS 6 Xposition Yposition Zposition Zrotation Xrotation Yrotation
          JOINT lShldr
          {
            OFFSET 13.6458 -0.047 -4.849
            CHANNELS 6 Xposition Yposition Zposition Zrotation Xrotation Yrotation
            JOINT lForeArm
            {
              OFFSET 28.3255 -0.9759 2.2888
              CHANNELS 6 Xposition Yposition Zposition Zrotation Xrotation Yrotation
              JOINT lHand
              {
                OFFSET 22.1583 -0.53 10.8316
                CHANNELS 6 Xposition Yposition Zposition Zrotation Xrotation Yrotation
                JOINT lThumb1
                {
                  OFFSET 0.786 0.112 2.5817
                  CHANNELS 6 Xposition Yposition Zposition Zrotation Xrotation Yrotation
                  JOINT lThumb2
                  {
                    OFFSET 0.3601 -0.878 4.2331
                    CHANNELS 6 Xposition Yposition Zposition Zrotation Xrotation Yrotation
                    JOINT lThumb2_End
                    {
                      OFFSET 1.8127 -1.216 2.2227
                      CHANNELS 6 Xposition Yposition Zposition Zrotation Xrotation Yrotation
                      End Site
                      {
                        OFFSET 0.0181 -0.0122 0.0222
                      }
                    }
                  }
                }
                JOINT lCarpal1
                {
                  OFFSET 0.9571 1.114 1.7695
                  CHANNELS 6 Xposition Yposition Zposition Zrotation Xrotation Yrotation
                  JOINT lIndex1
                  {
                    OFFSET 4.1246 0.487 4.1451
                    CHANNELS 6 Xposition Yposition Zposition Zrotation Xrotation Yrotation
                    JOINT lIndex2
                    {
                      OFFSET 3.4052 -1.454 2.7682
                      CHANNELS 6 Xposition Yposition Zposition Zrotation Xrotation Yrotation
                      JOINT lIndex2_End
                      {
                        OFFSET 1.4531 -1.795 1.2713
                        CHANNELS 6 Xposition Yposition Zposition Zrotation Xrotation Yrotation
                        End Site
                        {
                          OFFSET 0.0145 -0.0179 0.0127
                        }
                      }
                    }
                  }
                  JOINT lMid1
                  {
                    OFFSET 5.6954 0.21 2.1184
                    CHANNELS 6 Xposition Yposition Zposition Zrotation Xrotation Yrotation
                    JOINT lMid2
                    {
                      OFFSET 3.9766 -1.54 2.3863
                      CHANNELS 6 Xposition Yposition Zposition Zrotation Xrotation Yrotation
                      JOINT lMid2_End
                      {
                        OFFSET 1.4042 -1.926 1.125
                        CHANNELS 6 Xposition Yposition Zposition Zrotation Xrotation Yrotation
                        End Site
                        {
                          OFFSET 0.014 -0.0193 0.0113
                        }
                      }
                    }
                  }
                }
                JOINT lCarpal2
                {
                  OFFSET 2.0956 0.66 -0.3894
                  CHANNELS 6 Xposition Yposition Zposition Zrotation Xrotation Yrotation
                  JOINT lRing1
                  {
                    OFFSET 5.0395 -0.09 2.4971
                    CHANNELS 6 Xposition Yposition Zposition Zrotation Xrotation Yrotation
                    JOINT lRing2
                    {
                      OFFSET 3.7921 -1.552 1.4806
                      CHANNELS 6 Xposition Yposition Zposition Zrotation Xrotation Yrotation
                      JOINT lRing2_End
                      {
                        OFFSET 1.4655 -1.808 0.9609
                        CHANNELS 6 Xposition Yposition Zposition Zrotation Xrotation Yrotation
                        End Site
                        {
                          OFFSET 0.0147 -0.0181 0.0096
                        }
                      }
                    }
                  }
                  JOINT lPinky1
                  {
                    OFFSET 4.9141 -1.269 0.3591
                    CHANNELS 6 Xposition Yposition Zposition Zrotation Xrotation Yrotation
                    JOINT lPinky2
                    {
                      OFFSET 3.1477 -1.685 0.8462
                      CHANNELS 6 Xposition Yposition Zposition Zrotation Xrotation Yrotation
                      JOINT lPinky2_End
                      {
                        OFFSET 0.8055 -1.585 0.7955
                        CHANNELS 6 Xposition Yposition Zposition Zrotation Xrotation Yrotation
                        End Site
                        {
                          OFFSET 0.0081 -0.0158 0.008
                        }
                      }
                    }
                  }
                }
              }
            }
          }
        }
        JOINT rCollar
        {
          OFFSET -1.7069 20.075 5.0056
          CHANNELS 6 Xposition Yposition Zposition Zrotation Xrotation Yrotation
          JOINT rShldr
          {
            OFFSET -13.6458 -0.047 -4.849
            CHANNELS 6 Xposition Yposition Zposition Zrotation Xrotation Yrotation
            JOINT rForeArm
            {
              OFFSET -28.3255 -0.9759 2.2888
              CHANNELS 6 Xposition Yposition Zposition Zrotation Xrotation Yrotation
              JOINT rHand
              {
                OFFSET -22.1583 -0.53 10.8316
                CHANNELS 6 Xposition Yposition Zposition Zrotation Xrotation Yrotation
                JOINT rThumb1
                {
                  OFFSET -0.786 0.112 2.5817
                  CHANNELS 6 Xposition Yposition Zposition Zrotation Xrotation Yrotation
                  JOINT rThumb2
                  {
                    OFFSET -0.3601 -0.878 4.2331
                    CHANNELS 6 Xposition Yposition Zposition Zrotation Xrotation Yrotation
                    JOINT rThumb2_End
                    {
                      OFFSET -1.8127 -1.216 2.2227
                      CHANNELS 6 Xposition Yposition Zposition Zrotation Xrotation Yrotation
                      End Site
                      {
                        OFFSET -0.0181 -0.0122 0.0222
                      }
                    }
                  }
                }
                JOINT rCarpal1
                {
                  OFFSET -0.9571 1.114 1.7695
                  CHANNELS 6 Xposition Yposition Zposition Zrotation Xrotation Yrotation
                  JOINT rIndex1
                  {
                    OFFSET -4.1246 0.487 4.1451
                    CHANNELS 6 Xposition Yposition Zposition Zrotation Xrotation Yrotation
                    JOINT rIndex2
                    {
                      OFFSET -3.4052 -1.454 2.7682
                      CHANNELS 6 Xposition Yposition Zposition Zrotation Xrotation Yrotation
                      JOINT rIndex2_End
                      {
                        OFFSET -1.4531 -1.795 1.2713
                        CHANNELS 6 Xposition Yposition Zposition Zrotation Xrotation Yrotation
                        End Site
                        {
                          OFFSET -0.0145 -0.018 0.0127
                        }
                      }
                    }
                  }
                  JOINT rMid1
                  {
                    OFFSET -5.6954 0.21 2.1184
                    CHANNELS 6 Xposition Yposition Zposition Zrotation Xrotation Yrotation
                    JOINT rMid2
                    {
                      OFFSET -3.9766 -1.54 2.3863
                      CHANNELS 6 Xposition Yposition Zposition Zrotation Xrotation Yrotation
                      JOINT rMid2_End
                      {
                        OFFSET -1.4042 -1.926 1.125
                        CHANNELS 6 Xposition Yposition Zposition Zrotation Xrotation Yrotation
                        End Site
                        {
                          OFFSET -0.014 -0.0193 0.0113
                        }
                      }
                    }
                  }
                }
                JOINT rCarpal2
                {
                  OFFSET -2.0956 0.66 -0.3894
                  CHANNELS 6 Xposition Yposition Zposition Zrotation Xrotation Yrotation
                  JOINT rRing1
                  {
                    OFFSET -5.0395 -0.09 2.4971
                    CHANNELS 6 Xposition Yposition Zposition Zrotation Xrotation Yrotation
                    JOINT rRing2
                    {
                      OFFSET -3.7921 -1.552 1.4806
                      CHANNELS 6 Xposition Yposition Zposition Zrotation Xrotation Yrotation
                      JOINT rRing2_End
                      {
                        OFFSET -1.4655 -1.808 0.9609
                        CHANNELS 6 Xposition Yposition Zposition Zrotation Xrotation Yrotation
                        End Site
                        {
                          OFFSET -0.0147 -0.0181 0.0096
                        }
                      }
                    }
                  }
                  JOINT rPinky1
                  {
                    OFFSET -4.9141 -1.269 0.3592
                    CHANNELS 6 Xposition Yposition Zposition Zrotation Xrotation Yrotation
                    JOINT rPinky2
                    {
                      OFFSET -3.1477 -1.685 0.8462
                      CHANNELS 6 Xposition Yposition Zposition Zrotation Xrotation Yrotation
                      JOINT rPinky2_End
                      {
                        OFFSET -0.8055 -1.585 0.7955
                        CHANNELS 6 Xposition Yposition Zposition Zrotation Xrotation Yrotation
                        End Site
                        {
                          OFFSET -0.0081 -0.0158 0.008
                        }
                      }
                    }
                  }
                }
              }
            }
          }
        }
      }
    }
  }
  JOINT lThigh
  {
    OFFSET 8.367 -8.2066 0.5982
    CHANNELS 6 Xposition Yposition Zposition Zrotation Xrotation Yrotation
    JOINT lShin
    {
      OFFSET 2.1923 -43.463 -0.4932
      CHANNELS 6 Xposition Yposition Zposition Zrotation Xrotation Yrotation
      JOINT lFoot
      {
        OFFSET 0.7333 -45.8593 -2.6451
        CHANNELS 6 Xposition Yposition Zposition Zrotation Xrotation Yrotation
        End Site
        {
          OFFSET 2.6618 -4.2699 12.3931
        }
      }
    }
  }
  JOINT rThigh
  {
    OFFSET -8.367 -8.2066 0.5982
    CHANNELS 6 Xposition Yposition Zposition Zrotation Xrotation Yrotation
    JOINT rShin
    {
      OFFSET -2.1923 -43.463 -0.4931
      CHANNELS 6 Xposition Yposition Zposition Zrotation Xrotation Yrotation
      JOINT rFoot
      {
        OFFSET -0.7333 -45.8593 -2.6451
        CHANNELS 6 Xposition Yposition Zposition Zrotation Xrotation Yrotation
        End Site
        {
          OFFSET -2.6618 -4.2699 12.3931
        }
      }
    }
  }
}
MOTION
Frames:	4
Frame Time:	0.0333333
0 90.174 2.4664 0 0 -0 0 -1.186 -1.5018 0 0 -0 0 9.964 0.2134 0 0 -0 0 13.134 -3.2573 0 0 -0 0 20.686 -1.6905 0 0 -0 0 7.238 -0.1237 0 0 -0 1.7069 20.075 5.0056 0 0 -0 13.6458 -0.047 -4.849 1.66051 0.0835086 5.75766 28.3255 -0.9759 2.2888 -0.0175111 0.895433 15.7816 22.1583 -0.53 10.8316 7.95139e-016 -1.98785e-016 -0 0.786 0.112 2.5817 5.46658e-016 -3.97569e-016 -0 0.3601 -0.878 4.2331 5.96354e-016 0 -0 1.8127 -1.216 2.2227 3.97569e-016 1.98785e-016 9.54166e-015 0.9571 1.114 1.7695 1.49089e-016 -3.97569e-016 -0 4.1246 0.487 4.1451 6.4605e-016 0 3.18055e-015 3.4052 -1.454 2.7682 5.96354e-016 0 3.18055e-015 1.4531 -1.795 1.2713 8.94531e-016 -1.98785e-016 6.36111e-015 5.6954 0.21 2.1184 6.4605e-016 0 3.18055e-015 3.9766 -1.54 2.3863 5.96354e-016 0 3.18055e-015 1.4042 -1.926 1.125 8.94531e-016 -1.98785e-016 6.36111e-015 2.0956 0.66 -0.3894 1.49089e-016 -3.97569e-016 -0 5.0395 -0.09 2.4971 6.4605e-016 0 3.18055e-015 3.7921 -1.552 1.4806 5.96354e-016 0 3.18055e-015 1.4655 -1.808 0.9609 8.94531e-016 -1.98785e-016 6.36111e-015 4.9141 -1.269 0.3591 6.4605e-016 0 3.18055e-015 3.1477 -1.685 0.8462 5.96354e-016 0 3.18055e-015 0.8055 -1.585 0.7955 8.94531e-016 -1.98785e-016 6.36111e-015 -1.7069 20.075 5.0056 0 0 -0 -13.6458 -0.047 -4.849 -1.4496 0.0636048 -5.0245 -28.3255 -0.9759 2.2888 -1.74811 1.20616 -16.8394 -22.1583 -0.53 10.8316 -1.19271e-015 1.98785e-016 -3.18055e-015 -0.786 0.112 2.5817 -3.97569e-016 1.98785e-016 -3.18055e-015 -0.3601 -0.878 4.2331 -2.98177e-016 1.98785e-016 -3.18055e-015 -1.8127 -1.216 2.2227 -2.98177e-016 3.97569e-016 -0 -0.9571 1.114 1.7695 4.96962e-016 0 -6.36111e-015 -4.1246 0.487 4.1451 -9.93923e-017 3.97569e-016 -0 -3.4052 -1.454 2.7682 -8.94531e-016 5.96354e-016 -0 -1.4531 -1.795 1.2713 -3.97569e-016 3.97569e-016 -0 -5.6954 0.21 2.1184 -9.93923e-017 3.97569e-016 -0 -3.9766 -1.54 2.3863 -8.94531e-016 5.96354e-016 -0 -1.4042 -1.926 1.125 -3.97569e-016 3.97569e-016 -0 -2.0956 0.66 -0.3894 4.96962e-016 0 -6.36111e-015 -5.0395 -0.09 2.4971 -9.93923e-017 3.97569e-016 -0 -3.7921 -1.552 1.4806 -8.94531e-016 5.96354e-016 -0 -1.4655 -1.808 0.9609 -3.97569e-016 3.97569e-016 -0 -4.9141 -1.269 0.3592 -9.93923e-017 3.97569e-016 -0 -3.1477 -1.685 0.8462 -8.94531e-016 5.96354e-016 -0 -0.8055 -1.585 0.7955 -3.97569e-016 3.97569e-016 -0 8.367 -8.2066 0.5982 -4.66115 -1.03232 0.120763 2.1923 -43.463 -0.4932 0.00990601 1.55097 0.177175 0.7333 -45.8593 -2.6451 4.65196 -0.54114 -0.255042 -8.367 -8.2066 0.5982 4.66115 -1.03222 -0.120763 -2.1923 -43.463 -0.4931 -0.00990459 1.5509 -0.177176 -0.7333 -45.8593 -2.6451 -4.65196 -0.541171 0.255041 
0.320561 36.1019 -9.35078 -0 -86.0149 -0 0 -1.186 -1.5018 -1.45521e-014 -1.40084 -1.01235e-015 5.55112e-017 9.964 0.2134 3.37815e-022 -2.80164 9.82506e-022 0 13.134 -3.2573 -5.61797e-022 -2.80168 2.91514e-022 -5.55112e-017 20.686 -1.6905 16.9982 -0.00245777 -15.0012 -3.55271e-015 7.238 -0.1237 -21.2395 8.39633 11.247 1.7069 20.075 5.0056 20.9968 0.136461 -0.00215971 13.6458 -0.047 -4.849 -76.2065 47.9653 12.8865 28.3255 -0.9759 2.2888 1.68409 0.296674 -37.2463 22.1583 -0.53 10.8316 8.9517 -6.853 -4.49567 0.786 0.112 2.5817 1.71044e-006 1.51478e-006 -1.15557e-006 0.3601 -0.878 4.2331 3.16001e-006 -1.27073e-006 -8.63137e-007 1.8127 -1.216 2.2227 5.70148e-007 5.04928e-007 -3.8519e-007 0.9571 1.114 1.7695 6.36111e-015 1.19271e-015 -7.95139e-016 4.1246 0.487 4.1451 1.71044e-006 1.51478e-006 -1.15557e-006 3.4052 -1.454 2.7682 3.16001e-006 -1.27073e-006 -8.63137e-007 1.4531 -1.795 1.2713 5.70148e-007 5.04928e-007 -3.8519e-007 5.6954 0.21 2.1184 1.71044e-006 1.51478e-006 -1.15557e-006 3.9766 -1.54 2.3863 3.16001e-006 -1.27073e-006 -8.63137e-007 1.4042 -1.926 1.125 5.70148e-007 5.04928e-007 -3.8519e-007 2.0956 0.66 -0.3894 6.36111e-015 1.19271e-015 -7.95139e-016 5.0395 -0.09 2.4971 1.71044e-006 1.51478e-006 -1.15557e-006 3.7921 -1.552 1.4806 3.16001e-006 -1.27073e-006 -8.63137e-007 1.4655 -1.808 0.9609 5.70148e-007 5.04928e-007 -3.8519e-007 4.9141 -1.269 0.3591 1.71044e-006 1.51478e-006 -1.15557e-006 3.1477 -1.685 0.8462 3.16001e-006 -1.27073e-006 -8.63137e-007 0.8055 -1.585 0.7955 5.70148e-007 5.04928e-007 -3.8519e-007 -1.7069 20.075 5.0056 -20.4569 -13.3113 -1.93491 -13.6458 -0.047 -4.849 43.8858 -81.3861 77.9674 -28.3255 -0.9759 2.2888 6.16869 -0.16759 105.989 -22.1583 -0.53 10.8316 -0.55405 -3.67838 3.82129 -0.786 0.112 2.5817 1.67412e-006 2.96235e-007 -8.65923e-007 -0.3601 -0.878 4.2331 2.6867e-015 -5.71506e-016 -1.59028e-015 -1.8127 -1.216 2.2227 -3.78611e-008 2.96409e-007 -8.21409e-007 -0.9571 1.114 1.7695 -5.03174e-016 -3.85145e-016 3.18055e-015 -4.1246 0.487 4.1451 1.67412e-006 2.96235e-007 -8.65923e-007 -3.4052 -1.454 2.7682 4.17758e-015 4.96962e-016 -1.59028e-015 -1.4531 -1.795 1.2713 -3.78611e-008 2.96409e-007 -8.21409e-007 -5.6954 0.21 2.1184 1.67412e-006 2.96235e-007 -8.65923e-007 -3.9766 -1.54 2.3863 4.17758e-015 4.96962e-016 -1.59028e-015 -1.4042 -1.926 1.125 -3.78611e-008 2.96409e-007 -8.21409e-007 -2.0956 0.66 -0.3894 -5.03174e-016 -3.85145e-016 3.18055e-015 -5.0395 -0.09 2.4971 1.67412e-006 2.96235e-007 -8.65923e-007 -3.7921 -1.552 1.4806 4.17758e-015 4.96962e-016 -1.59028e-015 -1.4655 -1.808 0.9609 -3.78611e-008 2.96409e-007 -8.21409e-007 -4.9141 -1.269 0.3592 1.67412e-006 2.96235e-007 -8.65923e-007 -3.1477 -1.685 0.8462 4.17758e-015 4.96962e-016 -1.59028e-015 -0.8055 -1.585 0.7955 -3.78611e-008 2.96409e-007 -8.21409e-007 8.367 -8.2066 0.5982 -1.49155 -2.33485 11.383 2.1923 -43.463 -0.4932 -1.281 5.76447 6.58879 0.7333 -45.8593 -2.6451 -4.65635 5.9605 7.91944 -8.367 -8.2066 0.5982 -3.30009 -40.273 2.76084 -2.1923 -43.463 -0.4931 -1.14313 75.6253 -20.5596 -0.7333 -45.8593 -2.6451 -7.83325 47.465 2.10026 
0.320562 36.1019 -9.35079 -0 -86.0149 -0 0 -1.186 -1.5018 -0 -1.40084 -0 0 9.964 0.2134 -0 -2.80164 -0 0 13.134 -3.2573 -0 -2.80168 -0 0 20.686 -1.6905 16.9982 -0.00245812 -15.0012 0 7.238 -0.1237 -21.2395 8.39633 11.247 1.7069 20.075 5.0056 20.9968 0.136461 -0.00215978 13.6458 -0.047 -4.849 -76.2065 47.9653 12.8866 28.3255 -0.9759 2.2888 1.68411 0.296697 -37.2462 22.1583 -0.53 10.8316 8.95169 -6.85299 -4.49567 0.786 0.112 2.5817 2.58986e-006 -1.77566e-006 -4.77947e-007 0.3601 -0.878 4.2331 4.01523e-006 -5.13344e-007 -1.44092e-006 1.8127 -1.216 2.2227 2.30479e-006 -2.02813e-006 -2.85353e-007 0.9571 1.114 1.7695 -3.18055e-015 -6.36111e-015 5.56597e-015 4.1246 0.487 4.1451 2.58986e-006 -1.77566e-006 -4.77947e-007 3.4052 -1.454 2.7682 4.01523e-006 -5.13344e-007 -1.44092e-006 1.4531 -1.795 1.2713 2.30479e-006 -2.02813e-006 -2.85353e-007 5.6954 0.21 2.1184 2.58986e-006 -1.77566e-006 -4.77947e-007 3.9766 -1.54 2.3863 4.01523e-006 -5.13344e-007 -1.44092e-006 1.4042 -1.926 1.125 2.30479e-006 -2.02813e-006 -2.85353e-007 2.0956 0.66 -0.3894 -3.18055e-015 -6.36111e-015 5.56597e-015 5.0395 -0.09 2.4971 2.58986e-006 -1.77566e-006 -4.77947e-007 3.7921 -1.552 1.4806 4.01523e-006 -5.13344e-007 -1.44092e-006 1.4655 -1.808 0.9609 2.30479e-006 -2.02813e-006 -2.85353e-007 4.9141 -1.269 0.3591 2.58986e-006 -1.77566e-006 -4.77947e-007 3.1477 -1.685 0.8462 4.01523e-006 -5.13344e-007 -1.44092e-006 0.8055 -1.585 0.7955 2.30479e-006 -2.02813e-006 -2.85353e-007 -1.7069 20.075 5.0056 -20.4569 -13.3113 -1.93491 -13.6458 -0.047 -4.849 43.8859 -81.3861 77.9676 -28.3255 -0.9759 2.2888 6.16871 -0.16759 105.989 -22.1583 -0.53 10.8316 -0.554055 -3.67838 3.82129 -0.786 0.112 2.5817 -1.15443e-008 8.57008e-008 -8.42835e-007 -0.3601 -0.878 4.2331 -2.63168e-008 2.10709e-007 2.14252e-008 -1.8127 -1.216 2.2227 1.64781e-006 5.06944e-007 -8.44498e-007 -0.9571 1.114 1.7695 3.30169e-015 -1.36664e-016 -1.59028e-015 -4.1246 0.487 4.1451 -1.15443e-008 8.57008e-008 -8.42835e-007 -3.4052 -1.454 2.7682 -2.63168e-008 2.10709e-007 2.14252e-008 -1.4531 -1.795 1.2713 1.64781e-006 5.06944e-007 -8.44498e-007 -5.6954 0.21 2.1184 -1.15443e-008 8.57008e-008 -8.42835e-007 -3.9766 -1.54 2.3863 -2.63168e-008 2.10709e-007 2.14252e-008 -1.4042 -1.926 1.125 1.64781e-006 5.06944e-007 -8.44498e-007 -2.0956 0.66 -0.3894 3.30169e-015 -1.36664e-016 -1.59028e-015 -5.0395 -0.09 2.4971 -1.15443e-008 8.57008e-008 -8.42835e-007 -3.7921 -1.552 1.4806 -2.63168e-008 2.10709e-007 2.14252e-008 -1.4655 -1.808 0.9609 1.64781e-006 5.06944e-007 -8.44498e-007 -4.9141 -1.269 0.3592 -1.15443e-008 8.57008e-008 -8.42835e-007 -3.1477 -1.685 0.8462 -2.63168e-008 2.10709e-007 2.14252e-008 -0.8055 -1.585 0.7955 1.64781e-006 5.06944e-007 -8.44498e-007 8.367 -8.2066 0.5982 -1.49142 -2.33553 11.383 2.1923 -43.463 -0.4932 -1.28101 5.76577 6.58879 0.7333 -45.8593 -2.6451 -4.65641 5.95988 7.91942 -8.367 -8.2066 0.5982 -3.30007 -40.273 2.76085 -2.1923 -43.463 -0.4931 -1.14321 75.6254 -20.5595 -0.7333 -45.8593 -2.6451 -7.83324 47.465 2.10028 
0.320561 36.1019 -9.35078 -0 -86.0149 -0 0 -1.186 -1.5018 -1.45521e-014 -1.40084 -1.01235e-015 5.55112e-017 9.964 0.2134 3.37815e-022 -2.80164 9.82506e-022 0 13.134 -3.2573 -5.61797e-022 -2.80168 2.91514e-022 -5.55112e-017 20.686 -1.6905 16.9982 -0.00245574 -15.0012 -3.55271e-015 7.238 -0.1237 -21.2395 8.39632 11.247 1.7069 20.075 5.0056 20.9968 0.13647 -0.00216154 13.6458 -0.047 -4.849 -76.2065 47.9653 12.8866 28.3255 -0.9759 2.2888 1.6841 0.296692 -37.2462 22.1583 -0.53 10.8316 8.9517 -6.853 -4.49567 0.786 0.112 2.5817 -2.58986e-006 1.77566e-006 4.77948e-007 0.3601 -0.878 4.2331 -1.42537e-006 -1.26232e-006 9.62973e-007 1.8127 -1.216 2.2227 -5.70148e-007 -5.04928e-007 3.85189e-007 0.9571 1.114 1.7695 3.31043e-031 -5.96354e-015 3.18055e-015 4.1246 0.487 4.1451 -2.58986e-006 1.77566e-006 4.77948e-007 3.4052 -1.454 2.7682 -1.42537e-006 -1.26232e-006 9.62973e-007 1.4531 -1.795 1.2713 -5.70148e-007 -5.04928e-007 3.85189e-007 5.6954 0.21 2.1184 -2.58986e-006 1.77566e-006 4.77948e-007 3.9766 -1.54 2.3863 -1.42537e-006 -1.26232e-006 9.62973e-007 1.4042 -1.926 1.125 -5.70148e-007 -5.04928e-007 3.85189e-007 2.0956 0.66 -0.3894 3.31043e-031 -5.96354e-015 3.18055e-015 5.0395 -0.09 2.4971 -2.58986e-006 1.77566e-006 4.77948e-007 3.7921 -1.552 1.4806 -1.42537e-006 -1.26232e-006 9.62973e-007 1.4655 -1.808 0.9609 -5.70148e-007 -5.04928e-007 3.85189e-007 4.9141 -1.269 0.3591 -2.58986e-006 1.77566e-006 4.77948e-007 3.1477 -1.685 0.8462 -1.42537e-006 -1.26232e-006 9.62973e-007 0.8055 -1.585 0.7955 -5.70148e-007 -5.04928e-007 3.85189e-007 -1.7069 20.075 5.0056 -20.4569 -13.3113 -1.9349 -13.6458 -0.047 -4.849 43.8858 -81.3861 77.9674 -28.3255 -0.9759 2.2888 6.16871 -0.167591 105.989 -22.1583 -0.53 10.8316 -0.554055 -3.67838 3.82129 -0.786 0.112 2.5817 1.67412e-006 2.96235e-007 -8.65923e-007 -0.3601 -0.878 4.2331 1.99406e-015 9.44227e-016 -1.59028e-015 -1.8127 -1.216 2.2227 -3.78612e-008 2.96409e-007 -8.21409e-007 -0.9571 1.114 1.7695 3.01283e-016 8.69683e-017 1.59028e-015 -4.1246 0.487 4.1451 1.67412e-006 2.96235e-007 -8.65923e-007 -3.4052 -1.454 2.7682 2.08724e-015 1.22998e-015 -1.59028e-015 -1.4531 -1.795 1.2713 -3.78612e-008 2.96409e-007 -8.21409e-007 -5.6954 0.21 2.1184 1.67412e-006 2.96235e-007 -8.65923e-007 -3.9766 -1.54 2.3863 2.08724e-015 1.22998e-015 -1.59028e-015 -1.4042 -1.926 1.125 -3.78612e-008 2.96409e-007 -8.21409e-007 -2.0956 0.66 -0.3894 3.01283e-016 8.69683e-017 1.59028e-015 -5.0395 -0.09 2.4971 1.67412e-006 2.96235e-007 -8.65923e-007 -3.7921 -1.552 1.4806 2.08724e-015 1.22998e-015 -1.59028e-015 -1.4655 -1.808 0.9609 -3.78612e-008 2.96409e-007 -8.21409e-007 -4.9141 -1.269 0.3592 1.67412e-006 2.96235e-007 -8.65923e-007 -3.1477 -1.685 0.8462 2.08724e-015 1.22998e-015 -1.59028e-015 -0.8055 -1.585 0.7955 -3.78612e-008 2.96409e-007 -8.21409e-007 8.367 -8.2066 0.5982 -1.49114 -2.33694 11.383 2.1923 -43.463 -0.4932 -1.28102 5.76858 6.58878 0.7333 -45.8593 -2.6451 -4.65656 5.95854 7.91937 -8.367 -8.2066 0.5982 -3.30009 -40.273 2.76084 -2.1923 -43.463 -0.4931 -1.14313 75.6253 -20.5596 -0.7333 -45.8593 -2.6451 -7.83326 47.465 2.10027 
